# xmcd CD database file
#
# Track frame offsets:
#	150
#	28269
#	54382
#	74931
#	93957
#	130271
#	159043
#	183219
#	206966
#
# Disc length: 3122 seconds
#
# Revision: 0
# Processed by: cddbd v1.5.2PL0 Copyright (c) Steve Scherf et al.
# Submitted via: CDex 1.74
#
DISCID=7e0c3009
DTITLE=Richard Leach's 7 Stars of Jazz - Seranade in Blue Disc 1
DYEAR=2010
DGENRE=Jazz
TTITLE0=Ce Monsieur Qui Parle
TTITLE1=Someday Sweetheart
TTITLE2=I Wished on The Moon
TTITLE3=Between the Devil and the Deep Blue Sea
TTITLE4=Way Down Upon the Swanee River
TTITLE5=I'll Always be in Love With You
TTITLE6=What's New
TTITLE7=Savoy Blues
TTITLE8=After You've Gone
EXTD=YEAR: 2010
EXTT0=
EXTT1=
EXTT2=
EXTT3=
EXTT4=
EXTT5=
EXTT6=
EXTT7=
EXTT8=
PLAYORDER=
